# Alias OBJ Model File
# Exported from SketchUp, (c) 2000-2012 Trimble Navigation Limited
# File units = meters

mtllib střecha.mtl

g Mesh1 Model

usemtl FrontColor
v 19.7265 9.99 -6.58585
vt 776.634 393.307
vn -1.6075e-15 0 1
v -0.033496 9.94 -6.58585
vt -1.31874 391.339
v 19.7265 9.94 -6.58585
vt 776.634 391.339
f 1/1/1 2/2/1 3/3/1

v -0.033496 9.99 -6.58585
vt -1.31874 393.307
f 2/2/1 1/1/1 4/4/1

usemtl BackColor
vn 1.6075e-15 -0 -1
f 3/3/2 2/2/2 1/1/2

usemtl FrontColor
v -0.098496 2.83 -13.2985
vt -3.8778 -278.408
vn -1.11916e-15 -0.686495 0.727134
vt 776.634 106.557
vt -1.31874 106.557
f 5/5/3 3/6/3 2/7/3

v 19.7915 2.83 -13.2985
vt 779.193 -278.408
f 3/6/3 5/5/3 6/8/3

usemtl BackColor
vn 1.11916e-15 0.686495 -0.727134
f 6/8/4 5/5/4 3/6/4

usemtl FrontColor
vt 3.8778 -276.807
vn 1.11147e-15 0.683948 -0.729531
vt -776.634 109.592
vt -779.193 -276.807
f 5/9/5 1/10/5 6/11/5

vt 1.31874 109.592
f 1/10/5 5/9/5 4/12/5

usemtl BackColor
vn -1.11147e-15 -0.683948 0.729531
f 6/11/6 1/10/6 5/9/6

usemtl FrontColor
vt 531.082 111.417
vn 0.999953 0 0.00968279
vt 266.793 393.307
vt 266.793 391.339
f 6/13/7 1/14/7 3/15/7

usemtl BackColor
vn -0.999953 -0 -0.00968279
f 3/15/8 1/14/8 6/13/8

usemtl FrontColor
vt 251.698 393.307
vn 0.999952 4.18969e-14 -0.0097534
v 19.7915 2.83 0.078177
vt -10.6775 111.417
vt 251.698 391.339
f 1/16/9 7/17/9 3/18/9

vt 776.634 464.554
vn -7.94101e-16 0.681299 0.732005
v -0.098496 2.83 0.078177
vt -3.8778 79.4611
vt 779.193 79.4611
f 1/19/10 8/20/10 7/21/10

vt -1.31874 464.554
f 8/20/10 1/19/10 4/22/10

usemtl BackColor
vn 7.94101e-16 -0.681299 -0.732005
f 7/21/11 8/20/11 1/19/11

f 4/22/11 1/19/11 8/20/11

f 4/4/2 1/1/2 2/2/2

f 4/12/6 5/9/6 1/10/6

usemtl FrontColor
vt -523.575 111.417
vn -0.999953 0 0.00968279
vt -259.286 391.339
vt -259.286 393.307
f 5/23/12 2/24/12 4/25/12

usemtl BackColor
vn 0.999953 -0 -0.00968279
f 4/25/13 2/24/13 5/23/13

f 2/7/4 3/6/4 5/5/4

vn -0.999952 -4.18969e-14 0.0097534
f 3/18/14 7/17/14 1/16/14

g Mesh2 Model

v 71.7802 4.76031 -96.2774
v 71.7802 4.76031 -96.2865
l 9 10

g Mesh3 Model

v 71.643 4.76031 -50.5482
v 71.643 4.76031 -50.553
l 11 12

g Mesh4 Model

v -14.1456 4.76031 -43.1619
v -14.1456 4.76031 -43.1667
l 13 14

g Mesh5 Model

v 19.7265 9.89 -6.58585
l 15 3

l 3 1

l 3 2

l 3 6

l 3 7

l 8 7

l 4 8

l 4 1

l 2 4

v -0.033496 9.89 -6.58585
l 16 2

l 2 5

l 4 5

l 5 6

l 6 1

l 7 1

